<svg width="55" height="56" viewBox="0 0 55 56" fill="none" xmlns="http://www.w3.org/2000/svg">
<g clip-path="url(#clip0_230_997)">
<path d="M49.283 12.8633H17.6643C14.5063 12.8633 11.9463 15.4282 11.9463 18.5922V50.2711C11.9463 53.4351 14.5063 56 17.6643 56H49.283C52.441 56 55.0011 53.4351 55.0011 50.2711V18.5922C55.0011 15.4282 52.441 12.8633 49.283 12.8633Z" fill="#4881FF"/>
<path d="M37.3367 0H5.71803C2.56005 0 0 2.56493 0 5.72892V37.4078C0 40.5718 2.56005 43.1368 5.71803 43.1368H37.3367C40.4947 43.1368 43.0548 40.5718 43.0548 37.4078V5.72892C43.0548 2.56493 40.4947 0 37.3367 0Z" fill="#2152FF"/>
<path d="M37.3254 43.1397H11.4424V18.6772C11.4424 15.4901 14.0311 12.8965 17.2121 12.8965H43.0951V37.359C43.0951 40.5461 40.5064 43.1397 37.3254 43.1397ZM12.4506 42.1295H37.3254C39.9506 42.1295 42.0869 39.9892 42.0869 37.359V13.9067H17.2121C14.5869 13.9067 12.4506 16.047 12.4506 18.6772V42.1295Z" fill="#00092A"/>
<path d="M42.123 13.9033V37.1082C42.123 39.8773 39.8834 42.1211 37.1196 42.1211H12.4414V18.9163C12.4414 16.1472 14.681 13.9033 17.4448 13.9033H42.123Z" fill="#00092A"/>
</g>
<defs>
<clipPath id="clip0_230_997">
<rect width="55" height="56" fill="white"/>
</clipPath>
</defs>
</svg>
